<svg width="139" height="139" viewBox="0 0 139 139" fill="none" xmlns="http://www.w3.org/2000/svg">
<path d="M138.23 0.769836H0.770142V138.23H138.23V0.769836Z" fill="#F0DB4F"/>
<path d="M75.5755 107.977C75.5755 121.354 67.7205 127.46 56.2753 127.46C45.9356 127.46 39.9525 122.122 36.8838 115.648L47.4079 109.296C49.4331 112.886 51.2742 115.924 55.7231 115.924C59.9572 115.924 62.658 114.267 62.658 107.793V63.885H75.5755V107.977Z" fill="#323330"/>
<path d="M106.136 127.46C94.1387 127.46 86.376 121.753 82.6018 114.267L93.1262 108.191C95.8877 112.702 99.508 116.046 105.86 116.046C111.198 116.046 114.634 113.377 114.634 109.665C114.634 105.246 111.137 103.682 105.215 101.073L101.994 99.6927C92.666 95.7344 86.4985 90.7329 86.4985 80.2091C86.4985 70.513 93.893 63.149 105.399 63.149C113.622 63.149 119.513 66.0025 123.747 73.4894L113.683 79.9327C111.474 75.9744 109.081 74.4101 105.368 74.4101C101.594 74.4101 99.2008 76.8037 99.2008 79.9327C99.2008 83.7989 101.594 85.3642 107.148 87.7874L110.369 89.1683C121.354 93.8629 127.521 98.6806 127.521 109.481C127.522 121.078 118.378 127.46 106.136 127.46Z" fill="#323330"/>
<path d="M40.2706 23.032C40.2706 25.656 39.9826 28.136 39.4066 30.472C38.8626 32.776 38.1266 34.904 37.1986 36.856C36.2706 38.776 35.1826 40.504 33.9346 42.04C32.7186 43.544 31.4386 44.84 30.0946 45.928C28.7506 46.984 27.3906 47.8 26.0146 48.376C24.6386 48.92 23.3266 49.192 22.0786 49.192C21.0226 49.192 20.0626 49 19.1986 48.616C18.3346 48.2 17.5826 47.608 16.9426 46.84C16.3026 46.04 15.7906 45.032 15.4066 43.816C15.0546 42.568 14.8786 41.08 14.8786 39.352C14.8786 37.56 15.1026 35.672 15.5506 33.688C15.9986 31.704 16.6066 29.736 17.3746 27.784C18.1426 25.832 19.0866 23.976 20.2066 22.216C21.3266 20.456 22.5586 18.904 23.9026 17.56C25.2466 16.184 26.6866 15.096 28.2226 14.296C29.7586 13.496 31.3586 13.096 33.0226 13.096C34.4626 13.096 35.6466 13.4 36.5746 14.008C37.5346 14.584 38.2706 15.352 38.7826 16.312C39.3266 17.24 39.7106 18.296 39.9346 19.48C40.1586 20.664 40.2706 21.848 40.2706 23.032ZM22.0306 38.104C22.0306 38.456 22.0946 38.824 22.2226 39.208C22.3506 39.592 22.5266 39.928 22.7506 40.216C22.9746 40.504 23.2466 40.76 23.5666 40.984C23.9186 41.176 24.2866 41.272 24.6706 41.272C26.1106 41.272 27.3906 40.776 28.5106 39.784C29.6306 38.792 30.5586 37.576 31.2946 36.136C32.0306 34.696 32.5906 33.16 32.9746 31.528C33.3906 29.896 33.5986 28.408 33.5986 27.064C33.5986 26.68 33.5666 26.264 33.5026 25.816C33.4706 25.368 33.3746 24.952 33.2146 24.568C33.0866 24.184 32.8626 23.864 32.5426 23.608C32.2546 23.32 31.8546 23.176 31.3426 23.176C30.3186 23.176 29.3746 23.432 28.5106 23.944C27.6466 24.456 26.8626 25.144 26.1586 26.008C25.4866 26.84 24.8946 27.8 24.3826 28.888C23.8706 29.944 23.4226 31.032 23.0386 32.152C22.6866 33.24 22.4306 34.312 22.2706 35.368C22.1106 36.424 22.0306 37.336 22.0306 38.104ZM37.4465 49.096C38.3425 44.616 39.2065 40.248 40.0385 35.992C40.3585 34.168 40.6945 32.28 41.0465 30.328C41.3985 28.344 41.7185 26.392 42.0065 24.472C42.3265 22.552 42.6145 20.696 42.8705 18.904C43.1585 17.08 43.3825 15.432 43.5425 13.96C44.2785 13.992 44.9505 14.04 45.5585 14.104C46.1985 14.136 46.8225 14.168 47.4305 14.2C48.0385 14.232 48.6465 14.264 49.2545 14.296C49.8945 14.296 50.5825 14.296 51.3185 14.296C50.7745 16.568 50.2305 18.84 49.6865 21.112C49.1745 23.384 48.6945 25.672 48.2465 27.976L52.9985 27.448C53.4465 25.176 53.8465 22.984 54.1985 20.872C54.5505 18.728 55.0145 16.52 55.5905 14.248C56.3265 14.12 57.1425 14.024 58.0385 13.96C58.9345 13.864 59.7665 13.784 60.5345 13.72C61.3025 13.656 61.9425 13.608 62.4545 13.576C62.9985 13.512 63.2705 13.48 63.2705 13.48C62.8225 14.92 62.3905 16.504 61.9745 18.232C61.5905 19.928 61.2065 21.704 60.8225 23.56C60.4385 25.384 60.0705 27.24 59.7185 29.128C59.3665 31.016 59.0465 32.808 58.7585 34.504C58.0545 38.568 57.3985 42.728 56.7905 46.984L49.3025 47.848C49.7185 45.928 50.0865 44.056 50.4065 42.232C50.7265 40.696 51.0465 39.096 51.3665 37.432C51.7185 35.768 51.9905 34.344 52.1825 33.16L47.5265 33.592C47.3025 34.808 47.0305 36.216 46.7105 37.816C46.4225 39.416 46.1505 40.936 45.8945 42.376C45.5425 44.104 45.1905 45.832 44.8385 47.56L37.4465 49.096ZM67.865 49.24C68.825 44.632 69.737 40.168 70.601 35.848C70.921 33.992 71.257 32.072 71.609 30.088C71.993 28.104 72.345 26.152 72.665 24.232C72.985 22.28 73.273 20.424 73.529 18.664C73.785 16.872 73.977 15.256 74.105 13.816C74.521 13.848 74.873 13.864 75.161 13.864C75.449 13.864 75.785 13.864 76.169 13.864C76.617 13.864 77.161 13.864 77.801 13.864C78.441 13.832 79.081 13.8 79.721 13.768C80.361 13.736 81.049 13.704 81.785 13.672C82.233 15.912 82.633 18.072 82.985 20.152C83.337 21.976 83.689 23.848 84.041 25.768C84.425 27.688 84.761 29.32 85.049 30.664C85.177 30.024 85.321 29.288 85.481 28.456C85.641 27.592 85.817 26.696 86.009 25.768C86.201 24.84 86.377 23.912 86.537 22.984C86.729 22.024 86.921 21.08 87.113 20.152C87.561 18.072 88.025 15.928 88.505 13.72L94.361 13C93.273 17.896 92.313 22.536 91.481 26.92C91.097 28.808 90.713 30.728 90.329 32.68C89.977 34.6 89.641 36.456 89.321 38.248C89.001 40.008 88.729 41.656 88.505 43.192C88.281 44.696 88.105 45.96 87.977 46.984C87.881 46.984 87.497 47.064 86.825 47.224C86.185 47.352 85.433 47.512 84.569 47.704C83.737 47.896 82.889 48.088 82.025 48.28C81.193 48.472 80.569 48.648 80.153 48.808C79.961 46.248 79.753 43.816 79.529 41.512C79.433 40.52 79.321 39.512 79.193 38.488C79.097 37.432 78.985 36.424 78.857 35.464C78.729 34.504 78.601 33.608 78.473 32.776C78.345 31.944 78.217 31.224 78.089 30.616C77.993 31.224 77.865 31.928 77.705 32.728C77.545 33.528 77.385 34.376 77.225 35.272C77.065 36.168 76.905 37.112 76.745 38.104C76.585 39.064 76.409 39.992 76.217 40.888C75.801 43.032 75.353 45.272 74.873 47.608L67.865 49.24ZM116.208 23.032C116.208 25.656 115.92 28.136 115.344 30.472C114.8 32.776 114.064 34.904 113.136 36.856C112.208 38.776 111.12 40.504 109.872 42.04C108.656 43.544 107.376 44.84 106.032 45.928C104.688 46.984 103.328 47.8 101.952 48.376C100.576 48.92 99.2641 49.192 98.0161 49.192C96.9601 49.192 96.0001 49 95.1361 48.616C94.2721 48.2 93.5201 47.608 92.8801 46.84C92.2401 46.04 91.7281 45.032 91.3441 43.816C90.9921 42.568 90.8161 41.08 90.8161 39.352C90.8161 37.56 91.0401 35.672 91.4881 33.688C91.9361 31.704 92.5441 29.736 93.3121 27.784C94.0801 25.832 95.0241 23.976 96.1441 22.216C97.2641 20.456 98.4961 18.904 99.8401 17.56C101.184 16.184 102.624 15.096 104.16 14.296C105.696 13.496 107.296 13.096 108.96 13.096C110.4 13.096 111.584 13.4 112.512 14.008C113.472 14.584 114.208 15.352 114.72 16.312C115.264 17.24 115.648 18.296 115.872 19.48C116.096 20.664 116.208 21.848 116.208 23.032ZM97.9681 38.104C97.9681 38.456 98.0321 38.824 98.1601 39.208C98.2881 39.592 98.4641 39.928 98.6881 40.216C98.9121 40.504 99.1841 40.76 99.5041 40.984C99.8561 41.176 100.224 41.272 100.608 41.272C102.048 41.272 103.328 40.776 104.448 39.784C105.568 38.792 106.496 37.576 107.232 36.136C107.968 34.696 108.528 33.16 108.912 31.528C109.328 29.896 109.536 28.408 109.536 27.064C109.536 26.68 109.504 26.264 109.44 25.816C109.408 25.368 109.312 24.952 109.152 24.568C109.024 24.184 108.8 23.864 108.48 23.608C108.192 23.32 107.792 23.176 107.28 23.176C106.256 23.176 105.312 23.432 104.448 23.944C103.584 24.456 102.8 25.144 102.096 26.008C101.424 26.84 100.832 27.8 100.32 28.888C99.8081 29.944 99.3601 31.032 98.9761 32.152C98.6241 33.24 98.3681 34.312 98.2081 35.368C98.0481 36.424 97.9681 37.336 97.9681 38.104ZM122.696 37.624C121.768 37.624 120.84 37.656 119.912 37.72C118.984 37.784 118.056 37.848 117.128 37.912C118.12 33.976 119.08 30.056 120.008 26.152C120.968 22.248 121.96 18.328 122.984 14.392C123.592 14.296 124.28 14.2 125.048 14.104C125.848 14.008 126.648 13.896 127.448 13.768C128.248 13.64 129.016 13.528 129.752 13.432C130.52 13.336 131.16 13.24 131.672 13.144C129.944 17.176 128.36 21.24 126.92 25.336C125.512 29.4 124.104 33.496 122.696 37.624ZM123.176 45.16C123.176 45.768 123.032 46.376 122.744 46.984C122.488 47.592 122.104 48.136 121.592 48.616C121.08 49.064 120.44 49.416 119.672 49.672C118.904 49.96 118.024 50.104 117.032 50.104C116.36 50.104 115.752 49.976 115.208 49.72C114.664 49.464 114.216 49.128 113.864 48.712C113.544 48.264 113.288 47.768 113.096 47.224C112.904 46.68 112.808 46.136 112.808 45.592C112.808 44.984 112.904 44.408 113.096 43.864C113.288 43.288 113.576 42.792 113.96 42.376C114.376 41.928 114.872 41.56 115.448 41.272C116.056 40.984 116.776 40.84 117.608 40.84C119.464 40.84 120.856 41.288 121.784 42.184C122.712 43.048 123.176 44.04 123.176 45.16Z" fill="#323330"/>
</svg>
